<?xml version="1.0" encoding="UTF-8"?><svg id="Layer_2" xmlns="http://www.w3.org/2000/svg" xmlns:xlink="http://www.w3.org/1999/xlink" viewBox="0 0 48.27 48.27"><defs><linearGradient id="linear-gradient" x1="-522" y1="1204.17" x2="-509.29" y2="1244.18" gradientTransform="translate(539 -1201.5)" gradientUnits="userSpaceOnUse"><stop offset="0" stop-color="#c77740"/><stop offset="1" stop-color="#b0622b"/></linearGradient><linearGradient id="linear-gradient-2" x1="-514.86" y1="1239.6" x2="-514.86" y2="1243.53" gradientTransform="translate(539 -1201.5)" gradientUnits="userSpaceOnUse"><stop offset=".44" stop-color="#878786"/><stop offset=".59" stop-color="#9f9f9e"/><stop offset=".86" stop-color="#c3c3c3"/><stop offset="1" stop-color="#d1d1d1"/></linearGradient><linearGradient id="linear-gradient-3" x1="1400.45" y1="-52.48" x2="1402.34" y2="-44.64" gradientTransform="translate(1425.52 -41.41) rotate(-180)" gradientUnits="userSpaceOnUse"><stop offset="0" stop-color="#c3cdd9"/><stop offset="1" stop-color="#9fa7b0"/></linearGradient><linearGradient id="linear-gradient-4" x1="24.14" y1="18.06" x2="24.14" y2="34.3" gradientUnits="userSpaceOnUse"><stop offset="0" stop-color="#0d6efd"/><stop offset=".36" stop-color="#0d6ef7"/><stop offset=".81" stop-color="#0d6ee8"/><stop offset="1" stop-color="#0e6ee0"/></linearGradient></defs><g id="Layer_1-2"><g><g><g><path d="M38.14,5.14h-12c0,1.11-.9,2-2,2s-2-.89-2-2H10.14c-1.1,0-2,.89-2,2V43.14c0,1.1,.9,2,2,2h28c1.1,0,2-.9,2-2V7.14c0-1.11-.9-2-2-2Z" style="fill:url(#linear-gradient);"/><path d="M37.14,43.14H11.14c-.55,0-1-.45-1-1v-9h28v9c0,.55-.45,1-1,1Z" style="fill:url(#linear-gradient-2);"/><path d="M37.14,41.14H11.14c-.55,0-1-.45-1-1V8.14c0-.55,.45-1,1-1h26c.55,0,1,.45,1,1V40.14c0,.55-.45,1-1,1Z" style="fill:#f3f3f3;"/><path d="M26.95,5.14c-.41-1.17-1.51-2-2.82-2s-2.4,.83-2.81,2h-4.19v4c0,.55,.45,1,1,1h12c.56,0,1-.45,1-1V5.14h-4.18Zm-3.82,1c0-.55,.45-1,1-1s1,.45,1,1-.44,1-1,1-1-.45-1-1Z" style="fill:url(#linear-gradient-3);"/></g><path d="M19.97,34.56c-.09-.09-.23-.14-.36-.13-.04,.01-.09,.02-.13,.03-.05,.03-.1,.06-.15,.1-.08,.09-.13,.2-.13,.32s.05,.23,.13,.31c.05,.05,.1,.08,.15,.1,.06,.02,.11,.04,.17,.04,.12,0,.24-.05,.32-.14,.08-.08,.13-.19,.13-.31s-.05-.23-.13-.32Zm-1.85-.94c-.1-.07-.22-.1-.33-.08-.12,.02-.22,.08-.29,.18-.15,.2-.1,.48,.1,.63h0c.08,.05,.17,.08,.26,.08,.14,0,.28-.06,.36-.18,.15-.21,.1-.49-.1-.63Zm4.09,.94l-.9-.89c-.08-.09-.2-.14-.32-.14-.24,0-.45,.2-.45,.45,0,.12,.05,.24,.14,.32l.58,.58-.58,.58c-.18,.17-.18,.45-.01,.63,.17,.18,.45,.19,.63,.02t.01-.02l.9-.89c.17-.18,.17-.46,0-.64Zm-5.33-1.98c-.07-.11-.18-.17-.29-.19-.12-.01-.24,0-.34,.08-.2,.15-.24,.43-.09,.63,.01,.02,.02,.03,.04,.04,.08,.09,.2,.14,.32,.14,.09,0,.18-.02,.26-.08,.03-.02,.05-.04,.07-.06,.14-.16,.15-.39,.03-.56Zm-.98-1.45c-.07-.17-.24-.28-.41-.28-.06,0-.12,.01-.17,.03-.23,.09-.35,.35-.25,.59,.07,.17,.24,.27,.41,.27,.06,0,.12-.01,.17-.03,.23-.09,.34-.35,.25-.58Zm-.5-1.72c-.04-.18-.18-.32-.35-.35-.06-.01-.12-.01-.18,0-.24,.05-.4,.29-.34,.53,.04,.21,.22,.36,.44,.36,.02,0,.05,0,.09-.01,.24-.05,.39-.29,.34-.53Zm-.69-2.15c-.25,.02-.44,.22-.43,.47,0,.24,.21,.43,.45,.43h.02c.25-.02,.44-.22,.43-.47s-.22-.44-.47-.43Zm18.71-.31c-.08-.1-.2-.15-.33-.14-.12,0-.23,.05-.31,.14l-.58,.57-.58-.57c-.08-.09-.2-.14-.32-.14-.25,0-.45,.2-.45,.45,0,.12,.05,.23,.14,.32l.89,.89c.18,.18,.46,.18,.64,0l.89-.89c.18-.17,.19-.46,.01-.63Zm-18.66-1.47c-.25-.02-.46,.16-.48,.41-.02,.24,.15,.46,.41,.48h.04c.22,0,.42-.17,.44-.41,.02-.24-.16-.46-.41-.48Zm17.44-.01c-.25,0-.45,.2-.45,.44s.2,.45,.44,.46c.25,0,.45-.2,.46-.45,0-.25-.2-.45-.45-.45Zm-17.17-1.78c-.06-.02-.12-.02-.17,0-.18,.03-.32,.16-.36,.34-.05,.25,.11,.48,.35,.53,.03,.01,.06,.02,.09,.02,.21,0,.4-.15,.44-.36,.05-.25-.1-.48-.35-.53Zm17.27-.01c-.24-.02-.46,.16-.48,.41s.16,.47,.41,.48h.04c.23,0,.42-.17,.44-.4,.02-.25-.16-.47-.41-.49Zm.35-1.78c-.06-.02-.12-.02-.18,0-.17,.03-.32,.16-.36,.34-.06,.24,.09,.48,.33,.54,.03,.01,.07,.01,.1,.01,.21,0,.39-.14,.44-.34,.06-.24-.09-.48-.33-.54Zm-17.1,.01c-.06-.02-.12-.03-.17-.02-.18,0-.34,.12-.4,.29-.08,.24,.04,.49,.27,.57,.05,.02,.1,.03,.15,.03,.19,0,.36-.11,.42-.3,.09-.23-.04-.48-.27-.57Zm.72-1.76c-.05-.03-.11-.05-.17-.05-.17-.02-.35,.06-.44,.23-.12,.21-.04,.48,.18,.61,.07,.03,.14,.05,.21,.05,.16,0,.31-.08,.4-.23,.12-.22,.03-.49-.18-.61Zm16.83-.95c-.5,0-.9,.4-.9,.89s.4,.9,.9,.9,.89-.4,.89-.9-.4-.89-.89-.89Zm-15.6-.8c-.09-.08-.21-.11-.32-.1-.12,.01-.23,.07-.31,.16-.16,.19-.13,.48,.06,.63,.08,.07,.19,.1,.28,.1,.13,0,.26-.05,.35-.16,.16-.18,.13-.47-.06-.63Zm14.7,12c-.25,0-.44,.2-.45,.44,0,.21-.08,.9-.9,.9-.05,0-.13-.01-.24-.12-.71-.77-.78-3.89-.65-5.67,.16-2.3,.46-3.59,.87-4.82,.05-.13,.03-.27-.05-.39-.98-1.47-2.87-1.96-2.95-1.98-.24-.06-.49,.09-.55,.33-.01,.06-.19,.82-.38,1.82-.19-.6-.48-1.15-.92-1.59-.55-.55-1.26-.88-2.13-.98-.09-.03-.18-.05-.27-.03-.11,0-.22-.01-.34-.01-1.47,0-6.28,.65-6.28,8.96,0,2.97,2.01,5.38,4.49,5.38,.23,0,.47-.03,.73-.08h.04s.04-.01,.06-.01c1.56-.32,3.34-1.51,4.3-3.63,.32,1.86,1.16,3.72,3.38,3.72h1.12c.06,0,.12-.01,.18-.04,1.01-.19,1.39-1.11,1.39-1.75,0-.25-.2-.45-.45-.45Zm-5.82-5.56c0,.22-.01,.44-.01,.63,0,3.82-2.33,5.81-4.25,6.2-.27,0-.49-.07-.68-.25-.6-.56-.89-2.07-.89-4.61,0-5.93,2.54-7.34,3.13-7.58,.69,.07,1.25,.3,1.66,.72,1.1,1.12,1.07,3.3,1.04,4.89Zm-7.27-7.71c-.07-.1-.18-.15-.29-.17-.12,0-.23,.01-.33,.09-.2,.15-.24,.43-.09,.63,.09,.11,.23,.17,.36,.17,.09,0,.19-.02,.27-.09,.12-.09,.17-.22,.17-.35,0-.1-.03-.2-.09-.28Zm1.76-.94s-.1-.07-.15-.09c-.04-.02-.09-.03-.13-.04-.13-.01-.27,.04-.36,.13-.08,.08-.13,.2-.13,.32,0,.11,.05,.23,.13,.32,.09,.08,.2,.13,.32,.13,.06,0,.12-.02,.17-.04s.1-.05,.15-.09c.08-.09,.13-.21,.13-.32,0-.12-.05-.24-.13-.32Zm1.89-1.03c-.49,0-.89,.4-.89,.9s.4,.9,.89,.9,.9-.41,.9-.9-.4-.9-.9-.9Z" style="fill:url(#linear-gradient-4);"/></g><rect width="48.27" height="48.27" style="fill:none;"/></g></g></svg>