<?xml version="1.0" encoding="UTF-8"?><svg id="Layer_2" xmlns="http://www.w3.org/2000/svg" xmlns:xlink="http://www.w3.org/1999/xlink" viewBox="0 0 133.95 42"><defs><linearGradient id="linear-gradient" x1="-428.19" y1="1201.03" x2="-415.47" y2="1241.04" gradientTransform="translate(539 -1201.5)" gradientUnits="userSpaceOnUse"><stop offset="0" stop-color="#c77740"/><stop offset="1" stop-color="#b0622b"/></linearGradient><linearGradient id="linear-gradient-2" x1="-421.05" y1="1236.46" x2="-421.05" y2="1240.39" gradientTransform="translate(539 -1201.5)" gradientUnits="userSpaceOnUse"><stop offset=".44" stop-color="#878786"/><stop offset=".59" stop-color="#9f9f9e"/><stop offset=".86" stop-color="#c3c3c3"/><stop offset="1" stop-color="#d1d1d1"/></linearGradient><linearGradient id="linear-gradient-3" x1="1642.12" y1="-68.99" x2="1644.01" y2="-61.15" gradientTransform="translate(1761 -61.06) rotate(-180)" gradientUnits="userSpaceOnUse"><stop offset="0" stop-color="#c3cdd9"/><stop offset="1" stop-color="#9fa7b0"/></linearGradient><linearGradient id="linear-gradient-4" x1="117.96" y1="14.92" x2="117.96" y2="31.16" gradientUnits="userSpaceOnUse"><stop offset="0" stop-color="#0d6efd"/><stop offset=".36" stop-color="#0d6ef7"/><stop offset=".81" stop-color="#0d6ee8"/><stop offset="1" stop-color="#0e6ee0"/></linearGradient></defs><g id="Layer_1-2"><g><g><g><path d="M131.95,2h-12c0,1.11-.9,2-2,2s-2-.89-2-2h-12c-1.1,0-2,.89-2,2V40c0,1.1,.9,2,2,2h28c1.1,0,2-.9,2-2V4c0-1.11-.9-2-2-2Z" style="fill:url(#linear-gradient);"/><path d="M130.95,40h-26c-.55,0-1-.45-1-1v-9h28v9c0,.55-.45,1-1,1Z" style="fill:url(#linear-gradient-2);"/><path d="M130.95,38h-26c-.55,0-1-.45-1-1V5c0-.55,.45-1,1-1h26c.55,0,1,.45,1,1V37c0,.55-.45,1-1,1Z" style="fill:#f3f3f3;"/><path d="M120.77,2c-.41-1.17-1.51-2-2.82-2s-2.4,.83-2.81,2h-4.19V6c0,.55,.45,1,1,1h12c.56,0,1-.45,1-1V2h-4.18Zm-3.82,1c0-.55,.45-1,1-1s1,.45,1,1-.44,1-1,1-1-.45-1-1Z" style="fill:url(#linear-gradient-3);"/></g><path d="M113.79,31.42c-.09-.09-.23-.14-.36-.13-.04,.01-.09,.02-.13,.03-.05,.03-.1,.06-.15,.1-.08,.09-.13,.2-.13,.32s.05,.23,.13,.31c.05,.05,.1,.08,.15,.1,.06,.02,.11,.04,.17,.04,.12,0,.24-.05,.32-.14,.08-.08,.13-.19,.13-.31s-.05-.23-.13-.32Zm-1.85-.94c-.1-.07-.22-.1-.33-.08-.12,.02-.22,.08-.29,.18-.15,.2-.1,.48,.1,.63h0c.08,.05,.17,.08,.26,.08,.14,0,.28-.06,.36-.18,.15-.21,.1-.49-.1-.63Zm4.09,.94l-.9-.89c-.08-.09-.2-.14-.32-.14-.24,0-.45,.2-.45,.45,0,.12,.05,.24,.14,.32l.58,.58-.58,.58c-.18,.17-.18,.45-.01,.63,.17,.18,.45,.19,.63,.02t.01-.02l.9-.89c.17-.18,.17-.46,0-.64Zm-5.33-1.98c-.07-.11-.18-.17-.29-.19-.12-.01-.24,0-.34,.08-.2,.15-.24,.43-.09,.63,.01,.02,.02,.03,.04,.04,.08,.09,.2,.14,.32,.14,.09,0,.18-.02,.26-.08,.03-.02,.05-.04,.07-.06,.14-.16,.15-.39,.03-.56Zm-.98-1.45c-.07-.17-.24-.28-.41-.28-.06,0-.12,.01-.17,.03-.23,.09-.35,.35-.25,.59,.07,.17,.24,.27,.41,.27,.06,0,.12-.01,.17-.03,.23-.09,.34-.35,.25-.58Zm-.5-1.72c-.04-.18-.18-.32-.35-.35-.06-.01-.12-.01-.18,0-.24,.05-.4,.29-.34,.53,.04,.21,.22,.36,.44,.36,.02,0,.05,0,.09-.01,.24-.05,.39-.29,.34-.53Zm-.69-2.15c-.25,.02-.44,.22-.43,.47,0,.24,.21,.43,.45,.43h.02c.25-.02,.44-.22,.43-.47s-.22-.44-.47-.43Zm18.71-.31c-.08-.1-.2-.15-.33-.14-.12,0-.23,.05-.31,.14l-.58,.57-.58-.57c-.08-.09-.2-.14-.32-.14-.25,0-.45,.2-.45,.45,0,.12,.05,.23,.14,.32l.89,.89c.18,.18,.46,.18,.64,0l.89-.89c.18-.17,.19-.46,.01-.63Zm-18.66-1.47c-.25-.02-.46,.16-.48,.41-.02,.24,.15,.46,.41,.48h.04c.22,0,.42-.17,.44-.41,.02-.24-.16-.46-.41-.48Zm17.44-.01c-.25,0-.45,.2-.45,.44s.2,.45,.44,.46c.25,0,.45-.2,.46-.45,0-.25-.2-.45-.45-.45Zm-17.17-1.78c-.06-.02-.12-.02-.17,0-.18,.03-.32,.16-.36,.34-.05,.25,.11,.48,.35,.53,.03,.01,.06,.02,.09,.02,.21,0,.4-.15,.44-.36,.05-.25-.1-.48-.35-.53Zm17.27-.01c-.24-.02-.46,.16-.48,.41s.16,.47,.41,.48h.04c.23,0,.42-.17,.44-.4,.02-.25-.16-.47-.41-.49Zm.35-1.78c-.06-.02-.12-.02-.18,0-.17,.03-.32,.16-.36,.34-.06,.24,.09,.48,.33,.54,.03,.01,.07,.01,.1,.01,.21,0,.39-.14,.44-.34,.06-.24-.09-.48-.33-.54Zm-17.1,.01c-.06-.02-.12-.03-.17-.02-.18,0-.34,.12-.4,.29-.08,.24,.04,.49,.27,.57,.05,.02,.1,.03,.15,.03,.19,0,.36-.11,.42-.3,.09-.23-.04-.48-.27-.57Zm.72-1.76c-.05-.03-.11-.05-.17-.05-.17-.02-.35,.06-.44,.23-.12,.21-.04,.48,.18,.61,.07,.03,.14,.05,.21,.05,.16,0,.31-.08,.4-.23,.12-.22,.03-.49-.18-.61Zm16.83-.95c-.5,0-.9,.4-.9,.89s.4,.9,.9,.9,.89-.4,.89-.9-.4-.89-.89-.89Zm-15.6-.8c-.09-.08-.21-.11-.32-.1-.12,.01-.23,.07-.31,.16-.16,.19-.13,.48,.06,.63,.08,.07,.19,.1,.28,.1,.13,0,.26-.05,.35-.16,.16-.18,.13-.47-.06-.63Zm14.7,12c-.25,0-.44,.2-.45,.44,0,.21-.08,.9-.9,.9-.05,0-.13-.01-.24-.12-.71-.77-.78-3.89-.65-5.67,.16-2.3,.46-3.59,.87-4.82,.05-.13,.03-.27-.05-.39-.98-1.47-2.87-1.96-2.95-1.98-.24-.06-.49,.09-.55,.33-.01,.06-.19,.82-.38,1.82-.19-.6-.48-1.15-.92-1.59-.55-.55-1.26-.88-2.13-.98-.09-.03-.18-.05-.27-.03-.11,0-.22-.01-.34-.01-1.47,0-6.28,.65-6.28,8.96,0,2.97,2.01,5.38,4.49,5.38,.23,0,.47-.03,.73-.08h.04s.04-.01,.06-.01c1.56-.32,3.34-1.51,4.3-3.63,.32,1.86,1.16,3.72,3.38,3.72h1.12c.06,0,.12-.01,.18-.04,1.01-.19,1.39-1.11,1.39-1.75,0-.25-.2-.45-.45-.45Zm-5.82-5.56c0,.22-.01,.44-.01,.63,0,3.82-2.33,5.81-4.25,6.2-.27,0-.49-.07-.68-.25-.6-.56-.89-2.07-.89-4.61,0-5.93,2.54-7.34,3.13-7.58,.69,.07,1.25,.3,1.66,.72,1.1,1.12,1.07,3.3,1.04,4.89Zm-7.27-7.71c-.07-.1-.18-.15-.29-.17-.12,0-.23,.01-.33,.09-.2,.15-.24,.43-.09,.63,.09,.11,.23,.17,.36,.17,.09,0,.19-.02,.27-.09,.12-.09,.17-.22,.17-.35,0-.1-.03-.2-.09-.28Zm1.76-.94s-.1-.07-.15-.09c-.04-.02-.09-.03-.13-.04-.13-.01-.27,.04-.36,.13-.08,.08-.13,.2-.13,.32,0,.11,.05,.23,.13,.32,.09,.08,.2,.13,.32,.13,.06,0,.12-.02,.17-.04s.1-.05,.15-.09c.08-.09,.13-.21,.13-.32,0-.12-.05-.24-.13-.32Zm1.89-1.03c-.49,0-.89,.4-.89,.9s.4,.9,.89,.9,.9-.41,.9-.9-.4-.9-.9-.9Z" style="fill:url(#linear-gradient-4);"/></g><g><g><path d="M42.64,11.1l-.69,.96,.25,.18c-.2,.09-.36,.23-.48,.41-.12,.18-.18,.38-.18,.61v1.11c0,.34,.12,.64,.36,.88,.25,.24,.54,.36,.89,.36h.77c.34,0,.64-.12,.88-.36,.25-.25,.37-.54,.37-.88v-1.69l-2.18-1.57Zm.86,2.98h-.62v-.62h.62v.62Z"/><path d="M48.99,13.75l-.87-2.51-1.26,.43,.71,2.08h-1.31v-.53l-1.18,.03v1.14c0,.34,.14,.63,.4,.87,.25,.24,.55,.36,.9,.36h.68c.21,0,.4-.05,.58-.14,.18-.1,.34-.23,.46-.39,.12,.17,.27,.3,.46,.4,.18,.09,.38,.14,.6,.14h.04v-1.85h-.21Z"/><path d="M50.56,10.39l-.68,.9,.9,.67,.67-.9-.89-.67Zm.9,3.37v-1.46h-1.33v1.46h-.94c-.05,0-.1,.01-.14,.05-.03,.03-.05,.08-.05,.13v1.49s.02,.08,.05,.12c.04,.04,.09,.06,.13,.06h.88c.19,0,.36-.07,.51-.21,.14-.13,.21-.3,.21-.51,0,.2,.08,.36,.22,.51,.14,.14,.31,.21,.51,.21h.59v-1.85h-.64Z"/><path d="M53.47,10.39l-.68,.9,.9,.67,.67-.9-.89-.67Zm.9,3.37v-1.46h-1.33v1.46h-.94c-.05,0-.1,.01-.14,.05-.03,.03-.05,.08-.05,.13v1.49s.02,.08,.05,.12c.04,.04,.09,.06,.13,.06h.88c.19,0,.36-.07,.51-.21,.14-.13,.21-.3,.21-.51,0,.2,.08,.36,.22,.51,.14,.14,.31,.21,.51,.21h3.5v-1.85h-3.55Z"/><path d="M60.72,9.73l-2.26,.71c-.12,.04-.23,.11-.3,.21s-.11,.23-.11,.36v.97l1.15,1v.77h-1.28c-.05,0-.1,.01-.14,.05-.03,.03-.05,.08-.05,.13v1.49s.02,.08,.06,.12c.03,.04,.08,.06,.12,.06h1.36c.34,0,.64-.12,.88-.37,.25-.25,.37-.54,.37-.88v-2.03l-1.01-.83,1.2-.38v-1.39Z"/><path d="M65.39,13.75l-.87-2.51-1.26,.43,.72,2.08h-1.32v-.53l-1.18,.03v1.14c0,.34,.13,.63,.39,.87,.25,.24,.55,.36,.9,.36h.68c.21,0,.4-.05,.58-.14,.18-.1,.34-.23,.46-.39,.12,.17,.27,.3,.46,.4,.18,.09,.38,.14,.6,.14h.04v-1.85h-.21Z"/><path d="M67.88,13.75v-1.46h-1.33v1.46h-.94c-.05,0-.1,.01-.14,.05-.03,.03-.05,.08-.05,.13v1.49s.02,.08,.05,.12c.04,.04,.09,.06,.13,.06h.88c.19,0,.36-.07,.51-.21,.14-.13,.22-.3,.22-.51,0,.2,.07,.36,.21,.51,.14,.14,.31,.21,.51,.21h.76v-1.85h-.8Zm-1.24,2.19l-.39,.52-.68-.52-.68,.9,.9,.67,.38-.51,.69,.51,.67-.9-.9-.67Z"/><path d="M69.25,10.28v3.47h-.57c-.05,0-.27,.01-.3,.05-.03,.03-.05,.08-.05,.13v1.49s.02,.08,.06,.12c.03,.04,.25,.06,.29,.06h.65c.34,0,.64-.12,.88-.37s.37-.54,.37-.88v-4.07h-1.33Z"/><path d="M73.9,13.75v-.67c0-.35-.12-.64-.36-.89-.25-.24-.54-.37-.88-.37h-.46c-.36,0-.65,.12-.9,.36-.25,.25-.37,.54-.37,.89v1.81l.73,.73h1.07v.06l-1.43,1.16,1.12,1.01,.73-.72c.37-.38,.62-.88,.76-1.51h3.43v-1.85h-3.43Zm-1.18,.23h-.62v-.63h.62v.63Z"/><path d="M78.35,11.96v1.79h-1.03c-.05,0-.1,.01-.14,.05-.03,.03-.05,.08-.05,.13v1.49s.02,.08,.06,.12c.03,.04,.08,.06,.12,.06h1.1c.34,0,.64-.12,.88-.37,.25-.25,.37-.54,.37-.88v-2.4h-1.33Zm.46-1.9l-.38,.52-.68-.52-.68,.9,.9,.67,.39-.51,.68,.51,.67-.9-.9-.67Z"/><path d="M80.73,12.29v3.21l-1.36,1.25,1.21,1.08,.72-.72c.29-.29,.49-.6,.6-.96,.11-.36,.17-.77,.17-1.23v-2.63h-1.35Z"/><path d="M82.49,10.28v5.32h1.33v-5.32h-1.33Z"/><path d="M85.53,13.75v1.75s0,0,.01,0c.1,.07,3.26,.1,3.37,.1h.28v-1.85h-3.66Zm-.73-3.37l-.68,.9,.9,.67,.67-.9-.89-.67Zm-.56,1.9v3.21l-1.36,1.25,1.21,1.08,.73-.72c.28-.29,.48-.6,.6-.96,.06-.2,.11-.41,.13-.64,.03-.18,.04-.38,.04-.58v-2.63h-1.35Z"/><path d="M90.22,11.96v1.79h-1.03c-.05,0-.1,.01-.14,.05-.03,.03-.05,.08-.05,.13v1.49s.02,.08,.06,.12c.03,.04,.08,.06,.12,.06h1.1c.34,0,.64-.12,.88-.37,.25-.25,.37-.54,.37-.88v-2.4h-1.33Zm-.77,3.98l-.68,.9,.9,.67,.67-.9-.89-.67Z"/><path d="M91.96,10.28v5.32h1.33v-5.32h-1.33Z"/></g><path d="M18.63,25.11c-1.01-.65-1.75-.97-2.2-.97-.4,0-.85,.31-1.36,.93-.47,.57-.71,1.02-.71,1.35s.09,.64,.27,.97c-.77-.01-1.37,.24-1.78,.76-.39,.48-.57,1.11-.54,1.89l.16,3.92h0s.12,3.14,.12,3.14c.03,.63,.12,.98,.29,1.06,.03,.01,.05,.02,.08,.02,.04,0,.07-.01,.1-.02,.1-.03,.19-.12,.28-.25,.13-.19,.24-.48,.35-.86,.16-.58,.24-1.08,.24-1.48v-4.77c0-.51,.26-.77,.77-.77,.07,0,.14,0,.21,.01l3.52,.28c.44,.04,.87-.41,1.31-1.35,.38-.82,.57-1.48,.57-1.98,0-.55-.56-1.17-1.68-1.88Zm.19,2.77s-.07,0-.17-.02c-1.42-.18-2.4-.29-2.95-.33-.16-.18-.23-.37-.23-.57,0-.33,.17-.49,.52-.49,.81,0,1.7,.31,2.68,.95,.23,.15,.35,.27,.35,.36,0,.07-.07,.1-.2,.1Zm-5.63,5.42h-.54c-.06,.25-.12,.47-.18,.66h0c-.18,.58-.38,.86-.57,.86l.07,.15,.38-.07v.07c0,.1-.28,.35-.83,.76v.08l.38,.07,.38-.07c-.34,.56-.75,.83-1.21,.83v.08c0,.1,.17,.17,.53,.23,.02,0,.22-.05,.6-.16-.23,.41-.74,.61-1.52,.61-.22,0-.42-.05-.61-.15,0,.05-.02,.07-.07,.07,.28,.56,.66,.84,1.14,.84h2.05c.1,0,.15-.05,.15-.16v-4.54c0-.09-.05-.14-.15-.16Z"/><path d="M25.18,26.41c-.29,0-.63,.02-1.03,.07-.24,0-.35,.56-.35,1.66v2.28c0,.08,.04,.12,.14,.13h.9l.13-.07c.14-.55,.28-.83,.42-.83h0c-.01-.09-.1-.13-.28-.13,0-.24,.05-.45,.15-.61,.06-.12,.15-.21,.27-.29v-.07h-.36l-.13,.07c0-.12,.02-.22,.07-.32,.09-.22,.3-.39,.62-.51,0-.14-.21-.23-.62-.28-.05,0-.12,.03-.21,.08v-.08c.17-.32,.63-.47,1.39-.47h1.03l.13,.06s.03-.06,.08-.06c-.59-.42-1.37-.63-2.35-.63Zm-1.38,3.16v.1h.04s-.02-.07-.04-.1Zm1.59,.07c-.03-.25-.07-.5-.13-.73-.02-.13-.05-.24-.09-.36-.01-.08-.04-.17-.06-.25-.13-.43-.3-.82-.51-1.19-.14-.24-.29-.45-.45-.63-.46-.51-.99-.77-1.62-.77-.83,0-1.52,.78-2.09,2.34-.41,1.16-.62,2.06-.62,2.71,0,.83,.61,1.37,1.82,1.61,.51,.11,1.43,.16,2.75,.16-.36,1.3-1.82,2.59-4.38,3.86-.19,.1-.6,.25-1.22,.47-.12,.04-.22,.08-.29,.13-.14,.08-.2,.17-.2,.27,0,.22,.12,.37,.36,.47,.04,.02,.08,.03,.13,.04s.09,.02,.15,.03c.6,.1,1.13,.18,1.6,.25,.75,.09,1.34,.14,1.79,.14,.16,0,.44-.21,.82-.63,1.19-1.27,1.92-2.98,2.2-5.11h1.85v-2.81h-1.81Zm-4.17-.49c0-.59,.31-.88,.93-.88,.26,0,.54,.09,.84,.28,.39,.24,.66,.58,.81,1.02v.1c-.21,.03-.44,.05-.69,.05-1.26,0-1.89-.19-1.89-.57Zm.91,7.77c0-.13,.2-.55,.62-1.26-.13-.25-.25-.38-.38-.38h-.37c-1.06,1.17-2.02,1.76-2.9,1.76-.2,0-.4-.01-.6-.05-.48-.06-.95-.22-1.4-.45h-.13v.12c.5,.49,1.06,.85,1.69,1.07,.04,.02,.08,.03,.13,.04,.52,.19,1.09,.28,1.7,.28h.05c1.48-.14,2.21-.31,2.21-.51v-.12c-.34,0-.54-.17-.62-.5Z"/><path d="M35.46,29.65c-.38,0-.65-.15-.8-.46-.05-.09-.12-.38-.23-.86-.07-.31-.19-.46-.36-.46-.2,0-.34,.15-.41,.46-.1,.47-.16,.75-.19,.85-.13,.32-.39,.47-.76,.47-.4,0-.67-.15-.83-.47-.03-.07-.11-.35-.22-.85-.07-.31-.19-.46-.38-.46s-.32,.15-.38,.46c-.09,.46-.17,.74-.23,.85-.17,.32-.48,.47-.93,.47-.32,0-.55-.15-.67-.46l-.2-.86c-.07-.31-.2-.46-.39-.46s-.32,.16-.38,.46c-.11,.52-.17,.8-.2,.86-.13,.29-.36,.44-.7,.45-.03,.01-.05,.01-.08,.01h-.44v2.81h.53c.27,0,.57-.13,.91-.37,.27-.19,.46-.38,.57-.56,.37,.62,.87,.93,1.47,.93,.53,0,.99-.32,1.38-.96,.4,.65,.91,.97,1.53,.97,.53,0,.98-.32,1.35-.97,.33,.64,.74,.96,1.2,.96h.5v-2.81h-.66Z"/><path d="M40.55,29.64c-.98,0-1.55-.64-1.7-1.93-.04-.41-.18-.61-.4-.61s-.37,.2-.46,.61c-.27,1.29-.89,1.93-1.87,1.93h-.51v2.81h.79c.99,0,1.66-.6,2-1.78,.39,1.18,1.1,1.78,2.15,1.78h.68v-2.81h-.68Zm-3.57,7.06l-1.06-1.04c-.08-.07-.16-.07-.23,0l-1.06,1.05c-.08,.08-.08,.15-.01,.23l1.09,1.03c.09,.08,.18,.08,.26,0l.98-1c.1-.1,.11-.19,.03-.27Zm1.2-2.02l-1.08-1.06c-.08-.07-.16-.07-.23,0l-1.03,1.04-1.03-1.04c-.07-.08-.15-.08-.23,0l-1.07,1.07c-.08,.08-.08,.15-.01,.23l1.1,1.04c.09,.1,.19,.1,.28,0l1.01-1.01,1.01,1.01c.09,.1,.18,.1,.27,0l1-1.01c.09-.09,.1-.19,0-.27Z"/><path d="M44.17,26.88c-.25-.8-.62-1.4-1.13-1.81-.09-.08-.18-.07-.25,.05l-1.32,2.02c1.09,1,1.64,1.66,1.64,1.97,0,.36-.61,.53-1.82,.53h-.57v2.81h.68c1.03,0,1.82-.48,2.38-1.44,.44-.75,.66-1.6,.66-2.55,0-.49-.09-1.02-.27-1.58Zm-.72,7.71l-1.1-1.06c-.1-.09-.19-.09-.28,0l-1.01,1.01-1.01-1.01c-.09-.09-.18-.09-.28,0l-.99,1.01c-.1,.1-.11,.2-.02,.29l1.09,1.04c.08,.08,.15,.08,.23,0l1.03-1.03,1.02,1.03s.09,.07,.12,.07c.04,0,.08-.02,.12-.07l1.07-1.06c.08-.08,.08-.16,.01-.22Z"/><path d="M47.52,31.89c-.13,.07-.27,.11-.42,.11-.38,0-.68-.08-.86-.24-.07-.04-.12-.11-.16-.18,.06,.02,.1,.03,.15,.04,.16,.04,.24,.06,.26,.06,.24-.03,.36-.08,.36-.14v-.06c-.24,0-.45-.1-.64-.31-.07-.07-.13-.15-.19-.25l.19,.04h.07s.25-.04,.25-.04v-.05c-.14-.11-.25-.19-.34-.27-.15-.12-.22-.21-.22-.25v-.05l.21,.04h.05s.05-.09,.05-.09c-.03,0-.07-.01-.1-.04-.07-.05-.14-.15-.21-.32-.07-.16-.14-.39-.21-.67h-.36c-.06,.01-.1,.05-.1,.1v3.09s.01,.06,.03,.08c.01,.01,.04,.02,.07,.02h1.39c.33,0,.59-.19,.77-.57-.03,0-.04,0-.04-.05Zm-.92-11.24c-.06,0-.15,.04-.26,.12l-2.48,1.8,1.05,8.94c.07,.6,.21,.93,.42,.98,.01,.01,.04,.02,.07,.02,.23,0,.38-.26,.42-.79l.15-1.83,.73-8.85c.02-.26-.02-.39-.1-.39Z"/><path d="M52.48,25.11c-1.01-.65-1.74-.97-2.2-.97-.4,0-.85,.31-1.36,.93-.47,.57-.7,1.02-.7,1.35s.08,.64,.26,.97c-.77-.01-1.36,.24-1.78,.76-.39,.48-.56,1.11-.53,1.89v.17s0,.13,0,.13v.26s.03,.36,.03,.36v.21l.02,.45v.14s.03,.75,.03,.75l.06,1.48,.12,3.11c.03,.63,.13,.98,.3,1.06,.02,.01,.04,.02,.07,.02s.07-.01,.1-.02c.1-.03,.2-.12,.29-.25,.13-.19,.24-.48,.35-.86,.15-.58,.23-1.08,.23-1.48v-4.77c0-.51,.26-.77,.78-.77,.06,0,.13,0,.21,.01l3.52,.28c.43,.04,.87-.41,1.3-1.35,.38-.82,.57-1.48,.57-1.98,0-.55-.56-1.17-1.68-1.88Zm.19,2.77s-.07,0-.16-.02c-1.42-.18-2.41-.29-2.96-.33-.16-.18-.23-.37-.23-.57,0-.33,.17-.49,.52-.49,.81,0,1.7,.31,2.68,.95,.24,.15,.35,.27,.35,.36,0,.07-.06,.1-.2,.1Zm-5.63,5.42h-.53c-.06,.26-.13,.49-.19,.69-.18,.55-.37,.83-.57,.83l.08,.15,.37-.07v.07c0,.1-.27,.35-.83,.76v.08l.38,.07,.38-.07c-.34,.56-.75,.83-1.21,.83v.08c0,.1,.18,.17,.53,.23,.03,0,.23-.05,.61-.16-.24,.41-.75,.61-1.53,.61-.22,0-.42-.05-.6-.15,0,.05-.03,.07-.08,.07,.28,.56,.66,.84,1.14,.84h2.05c.1,0,.16-.05,.16-.16v-4.54c0-.09-.06-.14-.16-.16Z"/><path d="M58.84,29.34c-.31-.54-.47-.85-.47-.92v-.03h.07l.07,.03s.02-.03,.04-.03c-.02-.05-.04-.09-.04-.11-.03-.07-.07-.13-.12-.19-.2-.3-.54-.53-.99-.69-.03-.02-.07-.03-.1-.04v-.08h.3v-.03c-.13-.14-.26-.23-.4-.27-.06-.02-.12-.03-.19-.03v.7c.39,.88,.59,1.68,.59,2.43v.03c0,.74-.2,1.55-.59,2.43v.77h.03s.07-.03,.11-.07c0,0,.01,0,.01-.01,.13-.1,.31-.32,.55-.66,.03,0,.07,.05,.11,.15l.36-.4c.07-.17,.13-.32,.18-.44,.12-.25,.2-.39,.23-.41h.03v.11h.04c.08,0,.14-.24,.18-.73-.04-.39-.07-.65-.07-.77l.04-.15h.03s.08,.05,.12,.15l.07-.04c-.05-.35-.11-.58-.19-.7Zm-1.44-1.94s-.03-.08-.05-.12h0c-.05-.11-.1-.21-.15-.3-.26-.49-.54-.87-.84-1.15-.16-.13-.28-.2-.36-.2-.09,0-.18,.07-.27,.2l-1.33,2.02c1.66,1.2,2.49,2.12,2.49,2.74,0,.74-.9,1.63-2.69,2.66-.7,.39-1.54,.79-2.53,1.18-.5,.2-.74,.4-.74,.62,0,.25,.57,.45,1.73,.57,.81,.1,1.51,.13,2.09,.11,.28,0,.48-.04,.59-.1,.12-.06,.28-.2,.49-.43,.56-.6,1-1.25,1.32-1.96,0,0,.01,0,.01-.01,.33-.68,.54-1.41,.65-2.2,.06-.4,.09-.81,.09-1.24v-.02c0-.81-.17-1.6-.5-2.37Z"/><path d="M63.13,26.41c-.28,0-.63,.02-1.02,.07-.24,0-.35,.56-.35,1.66v2.28c0,.08,.04,.12,.13,.13h.91l.13-.07c.14-.55,.28-.83,.42-.83h0c-.01-.09-.11-.13-.28-.13,0-.25,.05-.46,.15-.62,.06-.11,.15-.21,.26-.28v-.07h-.35l-.13,.07c0-.12,.02-.22,.07-.32,.09-.22,.3-.39,.62-.51,0-.14-.21-.23-.62-.28-.05,0-.12,.03-.21,.08v-.08c.17-.32,.63-.47,1.39-.47h1.03l.13,.06s.03-.06,.08-.06c-.59-.42-1.38-.63-2.36-.63Zm-1.37,3.16v.1h.04s-.02-.07-.04-.1Zm1.59,.07c-.03-.26-.07-.51-.13-.74-.02-.12-.05-.24-.09-.35-.01-.08-.04-.17-.06-.25-.13-.43-.3-.82-.51-1.19-.14-.24-.29-.45-.45-.63-.46-.51-1-.77-1.62-.77-.83,0-1.52,.78-2.09,2.34,0,.01-.01,.03-.01,.04-.23,.64-.39,1.2-.49,1.68v.02c-.08,.37-.12,.69-.12,.97,0,.09,.01,.18,.03,.27,.06,.34,.24,.63,.55,.85,.3,.22,.71,.39,1.24,.49,.51,.11,1.43,.16,2.74,.16-.35,1.3-1.81,2.59-4.37,3.86-.19,.1-.6,.25-1.22,.47-.12,.04-.21,.08-.29,.13-.14,.08-.21,.17-.21,.27,0,.22,.12,.37,.37,.47,.04,.02,.08,.03,.13,.04s.09,.02,.15,.03c.6,.1,1.13,.18,1.6,.25,.75,.09,1.34,.14,1.79,.14,.16,0,.44-.21,.82-.63,1.19-1.27,1.92-2.98,2.2-5.11h1.85v-2.81h-1.81Zm-4.17-.49c0-.59,.31-.88,.93-.88,.26,0,.54,.09,.84,.28,.39,.24,.66,.58,.81,1.02v.1c-.21,.03-.44,.05-.69,.05-1.26,0-1.89-.19-1.89-.57Zm.91,7.77c0-.13,.2-.55,.62-1.26-.13-.25-.25-.38-.38-.38h-.37c-1.06,1.17-2.02,1.76-2.9,1.76-.2,0-.4-.01-.6-.05-.48-.06-.95-.22-1.4-.45h-.13v.12c.5,.49,1.06,.85,1.69,1.07,.04,.02,.08,.03,.13,.04,.52,.19,1.09,.28,1.7,.28h.05c1.48-.14,2.21-.31,2.21-.51v-.12c-.34,0-.55-.17-.62-.5Z"/><path d="M70.31,28.4c-.18,.1-.39,.15-.61,.15-.77,0-1.28-.2-1.51-.61,.38,.11,.58,.16,.6,.16,.36-.05,.54-.13,.54-.23v-.07c-.47,0-.87-.28-1.22-.84l.38,.08,.38-.08v-.08c-.56-.41-.84-.66-.84-.75v-.08l.39,.08,.07-.16c-.19,0-.39-.29-.58-.86-.06-.19-.12-.41-.18-.66h-.53c-.1,.02-.15,.07-.15,.16v4.55c0,.1,.05,.15,.15,.15h2.05c.49,0,.87-.28,1.14-.83-.05,0-.08-.03-.08-.08Zm-1.62-4.79l-1.15-2.63c-.08-.19-.16-.28-.24-.28s-.18,.06-.31,.2l-1.59,1.71c.33,1.12,.6,2.39,.82,3.8,.18,1.14,.27,1.94,.27,2.39,0,.56-.39,.84-1.16,.84h-.69v2.81h.65c.82,0,1.48-.36,1.97-1.06,.41-.6,.63-1.28,.65-2.08v-5.45c.22,.03,.4,.05,.53,.05,.2,0,.3-.05,.3-.15,0-.03-.02-.08-.05-.15Z"/><path d="M82.39,29.72l-.06-.08h-1.59l-.06,.08,.02,2.65,.05,.08h1.6l.06-.08-.02-2.65Zm-7.7,.62l-1.17-1.13c-.1-.1-.2-.1-.3,0l-1.06,1.09c-.11,.11-.12,.21-.03,.3l1.17,1.12c.08,.08,.16,.08,.24,0l1.15-1.14c.08-.08,.08-.16,0-.24Zm1.94,6.36c-1.13,.51-2.18,.76-3.13,.76h-.05c-.96,0-2-.25-3.13-.76h-.99v.05c.02,.07,.11,.18,.27,.32,0,0,0,.01,0,.01,.15,.14,.38,.31,.66,.52,0,.05-.06,.1-.18,.15l.51,.47c.7,.28,1.06,.46,1.1,.52v.04h-.14v.05c0,.1,.31,.18,.95,.24,.49-.06,.82-.09,.99-.09l.19,.04v.05c0,.05-.06,.1-.19,.15l.04,.09c.46-.06,.76-.14,.9-.24,.71-.41,1.11-.62,1.2-.62h.04v.1l-.04,.1s.04,.01,.04,.04c.07-.03,.11-.04,.14-.04,.52-.26,.9-.78,1.17-1.52,.01-.02,.01-.03,.02-.05h.1v.38h.04c.23-.2,.36-.44,.37-.7,.01-.02,.01-.04,.01-.06h-.9Zm-7.19-6.16c.02-.1,.03-.18,.05-.24,.04-.16,.08-.24,.13-.24l-.05-.09c-.5,.24-.79,.56-.84,.98-.01,.04-.01,.09-.01,.14v.04h.85s-.01-.09-.02-.15c-.02-.1-.05-.25-.11-.44Zm11.02-.9c-.54,0-1.06-.2-1.56-.62-.27-.23-.66-.65-1.16-1.27-.1-.12-.18-.18-.25-.18-.06,0-.15,.08-.24,.24l-1.22,2.03c1.53,1.63,2.29,2.71,2.29,3.26,0,.78-.66,1.35-1.99,1.73-.9,.25-1.89,.37-2.98,.37-2.74,0-4.12-.83-4.12-2.51,0-.46,.09-.98,.27-1.56,.01-.05,.03-.1,.05-.15,0-.02,.01-.05,.02-.07,.04-.13,.06-.24,.06-.35,0-.14-.05-.23-.14-.26-.02-.01-.04-.01-.07-.01-.18,0-.35,.12-.51,.36-.07,.1-.13,.2-.18,.3-.5,.86-.74,1.9-.74,3.1,0,1.33,.54,2.34,1.61,3.02,0,0,0,.01,0,.01,.03,.02,.06,.04,.09,.06,.94,.56,2.14,.85,3.61,.85s2.72-.29,3.68-.86c.03-.02,.06-.03,.08-.05,.13-.07,.25-.15,.36-.24,.03-.02,.06-.05,.09-.08,1.08-.84,1.62-2.09,1.62-3.72,0-.28-.02-.57-.06-.87,.24,.18,.68,.28,1.32,.28h.57v-2.81h-.51Z"/><path d="M86.67,29.64c-.98,0-1.54-.64-1.69-1.93-.05-.41-.18-.61-.4-.61s-.38,.2-.46,.61c-.27,1.29-.9,1.93-1.88,1.93h-.5v2.81h.79c.98,0,1.65-.6,2-1.78,.39,1.18,1.1,1.78,2.14,1.78h.69v-2.81h-.69Zm-1.87-5.31l-1.11-1.04c-.09-.09-.18-.09-.27,0l-1,1.01-1.01-1.01c-.09-.09-.19-.09-.28,0l-.99,1.01c-.1,.1-.11,.19-.03,.27l1.09,1.06c.08,.07,.15,.07,.23,0l1.02-1.04,1.04,1.04c.08,.07,.16,.07,.23,0l1.07-1.07c.08-.08,.08-.15,.01-.23Z"/><path d="M93.84,28.53v-.14c.1,0,.19-.02,.27-.07,0-.11-.27-.43-.82-.96v-.08h.21v-.06c-.08-.15-.4-.32-.97-.49l.07-.14v-.13c-.15,0-.28-.01-.4-.03-.42-.04-.68-.17-.78-.39h-.83c-.09,.02-.13,.06-.13,.14v.28l.9,.48c.91,.66,1.37,1.71,1.37,3.17l.14,.08h1.04c.09,0,.14-.05,.14-.14v-.42h.2c0-.31-.14-.67-.41-1.1Zm-.92-1.1c-.21-.41-.45-.74-.72-1-.44-.4-.94-.6-1.53-.6-.63,0-1.14,.23-1.53,.69-.39,.45-.59,1-.59,1.63,0,.49-.05,.83-.15,1.03-.16,.31-.46,.46-.9,.46h-.65v2.81h.45s.04,0,.06-.01c.76-.02,1.37-.6,1.81-1.73,.59,1.45,1.45,2.18,2.57,2.18,.63,0,1.11-.29,1.44-.88,.27-.47,.41-1.04,.41-1.72v-.1c-.01-1-.23-1.93-.67-2.76Zm-.81,3.41c-.65,0-1.17-.49-1.55-1.47-.2-.5-.3-.94-.3-1.33,0-.57,.21-.85,.62-.85,.47,0,.9,.44,1.28,1.31,.29,.64,.44,1.19,.44,1.62,0,.48-.17,.72-.49,.72Z"/><polyline points="37.03 13.67 .5 13.67 .5 31.13 7.28 31.13" style="fill:none; opacity:.2; stroke:#000; stroke-miterlimit:10;"/></g></g></g></svg>